<svg width="273" height="29" viewBox="0 0 273 29" fill="none" xmlns="http://www.w3.org/2000/svg">
<path d="M11.6289 1.4375C13.3997 1.4375 14.9818 1.80208 16.375 2.53125C17.7812 3.2474 18.875 4.26302 19.6562 5.57812C20.4505 6.88021 20.8477 8.38411 20.8477 10.0898C20.8477 11.9388 20.3594 13.5469 19.3828 14.9141C18.4062 16.2812 17.0911 17.2513 15.4375 17.8242L21.4531 28H15.8672L10.6133 18.5664C10.3789 18.5794 10.0339 18.5859 9.57812 18.5859H5.02734V28H0.164062V1.4375H11.6289ZM11.4531 14.4844C12.3125 14.4844 13.0807 14.2956 13.7578 13.918C14.4479 13.5404 14.9883 13.0195 15.3789 12.3555C15.7826 11.6914 15.9844 10.9362 15.9844 10.0898C15.9844 9.29557 15.7826 8.57292 15.3789 7.92188C14.9883 7.25781 14.4414 6.73698 13.7383 6.35938C13.0482 5.96875 12.2799 5.77344 11.4336 5.77344H5.02734V14.4844H11.4531ZM44.1875 17.6094C44.1875 18.0521 44.1549 18.5859 44.0898 19.2109H28.4062C28.5625 20.2786 28.901 21.2031 29.4219 21.9844C29.9557 22.7656 30.6133 23.3646 31.3945 23.7812C32.1888 24.1849 33.0482 24.3867 33.9727 24.3867C35.1445 24.3867 36.1016 24.1589 36.8438 23.7031C37.599 23.2344 38.1523 22.5638 38.5039 21.6914H43.6602C43.3086 22.9284 42.6901 24.0742 41.8047 25.1289C40.9193 26.1836 39.806 27.0299 38.4648 27.668C37.1367 28.293 35.6719 28.6055 34.0703 28.6055C32.1042 28.6055 30.3268 28.1302 28.7383 27.1797C27.1497 26.2292 25.9062 24.9401 25.0078 23.3125C24.1094 21.6849 23.6602 19.901 23.6602 17.9609C23.6602 16.0208 24.1094 14.237 25.0078 12.6094C25.9062 10.9818 27.1497 9.69271 28.7383 8.74219C30.3268 7.79167 32.1042 7.31641 34.0703 7.31641C36.0365 7.31641 37.7878 7.78516 39.3242 8.72266C40.8607 9.66016 42.0521 10.9167 42.8984 12.4922C43.7578 14.0547 44.1875 15.7604 44.1875 17.6094ZM39.3633 15.5586C39.2982 14.8164 39.0182 14.1328 38.5234 13.5078C38.0286 12.8698 37.3841 12.3685 36.5898 12.0039C35.8086 11.6263 34.9622 11.4375 34.0508 11.4375C32.7878 11.4375 31.6549 11.7891 30.6523 12.4922C29.6628 13.1823 28.9792 14.2044 28.6016 15.5586H39.3633ZM52.5469 7.92188V11.0469C53.1328 9.92708 54.0378 9.02865 55.2617 8.35156C56.4987 7.66146 57.8789 7.31641 59.4023 7.31641C62.0716 7.31641 64.0833 8.16276 65.4375 9.85547C66.7917 11.5482 67.4688 13.9896 67.4688 17.1797V28H62.7422V17.2773C62.7422 15.3503 62.3385 13.9375 61.5312 13.0391C60.724 12.1276 59.5781 11.6719 58.0938 11.6719C57.1432 11.6719 56.2643 11.9128 55.457 12.3945C54.6497 12.8633 53.9987 13.5599 53.5039 14.4844C53.0221 15.3958 52.7812 16.4831 52.7812 17.7461V28H48.0547V7.92188H52.5469ZM80.6914 28C78.7773 28 77.1888 27.4727 75.9258 26.418C74.6628 25.3503 74.0312 23.332 74.0312 20.3633V11.9844H69.8711V7.92188H74.0312V2.04297L78.7578 2.00391V7.92188H84.7734V11.9844H78.7578V20.5781C78.7578 22.9089 79.7279 24.0742 81.668 24.0742H84.7734V28H80.6914Z" fill="#012345"/>
<path d="M95.7891 7.92188H100.867L104.793 20.6562L105.145 21.8477H105.203L105.574 20.6562L109.383 7.92188H112.879L116.551 20.5195L116.961 21.8477H117.02L117.488 20.4414L121.414 7.92188H126.395L119.617 28H115.242L111.062 14.9922H111.043L106.805 28H102.547L95.7891 7.92188ZM134.07 0.5V8.68359L133.953 10.9297C134.591 9.8099 135.496 8.93099 136.668 8.29297C137.84 7.64193 139.181 7.31641 140.691 7.31641C143.361 7.31641 145.372 8.16276 146.727 9.85547C148.081 11.5482 148.758 13.9896 148.758 17.1797V28H144.031V17.2773C144.031 15.3503 143.628 13.9375 142.82 13.0391C142.013 12.1276 140.867 11.6719 139.383 11.6719C138.458 11.6719 137.586 11.9323 136.766 12.4531C135.958 12.9609 135.307 13.6771 134.812 14.6016C134.318 15.526 134.07 16.5742 134.07 17.7461V28H129.344V0.5H134.07ZM162.176 28.6055C160.405 28.6055 158.797 28.1302 157.352 27.1797C155.906 26.2292 154.773 24.9401 153.953 23.3125C153.133 21.6849 152.723 19.901 152.723 17.9609C152.723 16.0339 153.133 14.2565 153.953 12.6289C154.786 11.0013 155.919 9.71224 157.352 8.76172C158.797 7.79818 160.398 7.31641 162.156 7.31641C163.797 7.31641 165.249 7.67448 166.512 8.39062C167.788 9.09375 168.751 10.0703 169.402 11.3203V7.92188H173.895V28H169.402V24.6211C168.751 25.8711 167.788 26.8477 166.512 27.5508C165.249 28.2539 163.803 28.6055 162.176 28.6055ZM163.309 24.2305C164.389 24.2305 165.379 23.957 166.277 23.4102C167.189 22.8503 167.905 22.0951 168.426 21.1445C168.947 20.181 169.207 19.1198 169.207 17.9609C169.207 16.8151 168.94 15.7669 168.406 14.8164C167.885 13.8529 167.176 13.0911 166.277 12.5312C165.379 11.9714 164.389 11.6914 163.309 11.6914C162.228 11.6914 161.238 11.9583 160.34 12.4922C159.441 13.013 158.725 13.7487 158.191 14.6992C157.671 15.6497 157.41 16.737 157.41 17.9609C157.41 19.224 157.677 20.3307 158.211 21.2812C158.745 22.2318 159.461 22.9609 160.359 23.4688C161.258 23.9766 162.241 24.2305 163.309 24.2305ZM187.723 28C185.809 28 184.22 27.4727 182.957 26.418C181.694 25.3503 181.062 23.332 181.062 20.3633V11.9844H176.902V7.92188H181.062V2.04297L185.789 2.00391V7.92188H191.805V11.9844H185.789V20.5781C185.789 22.9089 186.759 24.0742 188.699 24.0742H191.805V28H187.723ZM214.188 17.6094C214.188 18.0521 214.155 18.5859 214.09 19.2109H198.406C198.562 20.2786 198.901 21.2031 199.422 21.9844C199.956 22.7656 200.613 23.3646 201.395 23.7812C202.189 24.1849 203.048 24.3867 203.973 24.3867C205.145 24.3867 206.102 24.1589 206.844 23.7031C207.599 23.2344 208.152 22.5638 208.504 21.6914H213.66C213.309 22.9284 212.69 24.0742 211.805 25.1289C210.919 26.1836 209.806 27.0299 208.465 27.668C207.137 28.293 205.672 28.6055 204.07 28.6055C202.104 28.6055 200.327 28.1302 198.738 27.1797C197.15 26.2292 195.906 24.9401 195.008 23.3125C194.109 21.6849 193.66 19.901 193.66 17.9609C193.66 16.0208 194.109 14.237 195.008 12.6094C195.906 10.9818 197.15 9.69271 198.738 8.74219C200.327 7.79167 202.104 7.31641 204.07 7.31641C206.036 7.31641 207.788 7.78516 209.324 8.72266C210.861 9.66016 212.052 10.9167 212.898 12.4922C213.758 14.0547 214.188 15.7604 214.188 17.6094ZM209.363 15.5586C209.298 14.8164 209.018 14.1328 208.523 13.5078C208.029 12.8698 207.384 12.3685 206.59 12.0039C205.809 11.6263 204.962 11.4375 204.051 11.4375C202.788 11.4375 201.655 11.7891 200.652 12.4922C199.663 13.1823 198.979 14.2044 198.602 15.5586H209.363ZM214.773 7.92188H219.793L224.461 20.0508L224.988 22.1602L225.496 20.0703L230.164 7.92188H235.223L227.176 28H222.781L214.773 7.92188ZM256.57 17.6094C256.57 18.0521 256.538 18.5859 256.473 19.2109H240.789C240.945 20.2786 241.284 21.2031 241.805 21.9844C242.339 22.7656 242.996 23.3646 243.777 23.7812C244.572 24.1849 245.431 24.3867 246.355 24.3867C247.527 24.3867 248.484 24.1589 249.227 23.7031C249.982 23.2344 250.535 22.5638 250.887 21.6914H256.043C255.691 22.9284 255.073 24.0742 254.188 25.1289C253.302 26.1836 252.189 27.0299 250.848 27.668C249.52 28.293 248.055 28.6055 246.453 28.6055C244.487 28.6055 242.71 28.1302 241.121 27.1797C239.533 26.2292 238.289 24.9401 237.391 23.3125C236.492 21.6849 236.043 19.901 236.043 17.9609C236.043 16.0208 236.492 14.237 237.391 12.6094C238.289 10.9818 239.533 9.69271 241.121 8.74219C242.71 7.79167 244.487 7.31641 246.453 7.31641C248.419 7.31641 250.171 7.78516 251.707 8.72266C253.243 9.66016 254.435 10.9167 255.281 12.4922C256.141 14.0547 256.57 15.7604 256.57 17.6094ZM251.746 15.5586C251.681 14.8164 251.401 14.1328 250.906 13.5078C250.411 12.8698 249.767 12.3685 248.973 12.0039C248.191 11.6263 247.345 11.4375 246.434 11.4375C245.171 11.4375 244.038 11.7891 243.035 12.4922C242.046 13.1823 241.362 14.2044 240.984 15.5586H251.746ZM264.969 7.92188V11.5547C265.451 10.4219 266.147 9.53646 267.059 8.89844C267.983 8.2474 269.083 7.92188 270.359 7.92188H272.508V11.9844H270.613C269.533 11.9844 268.582 12.2448 267.762 12.7656C266.941 13.2865 266.303 14.0482 265.848 15.0508C265.392 16.0534 265.164 17.2578 265.164 18.6641V28H260.438V7.92188H264.969Z" fill="#4959FF"/>
</svg>
