<svg width="165" height="18" viewBox="0 0 165 18" fill="none" xmlns="http://www.w3.org/2000/svg">
<path d="M7.77734 1.0625C8.83984 1.0625 9.78906 1.28125 10.625 1.71875C11.4688 2.14844 12.125 2.75781 12.5938 3.54688C13.0703 4.32812 13.3086 5.23047 13.3086 6.25391C13.3086 7.36328 13.0156 8.32812 12.4297 9.14844C11.8438 9.96875 11.0547 10.5508 10.0625 10.8945L13.6719 17H10.3203L7.16797 11.3398C7.02734 11.3477 6.82031 11.3516 6.54688 11.3516H3.81641V17H0.898438V1.0625H7.77734ZM7.67188 8.89062C8.1875 8.89062 8.64844 8.77734 9.05469 8.55078C9.46875 8.32422 9.79297 8.01172 10.0273 7.61328C10.2695 7.21484 10.3906 6.76172 10.3906 6.25391C10.3906 5.77734 10.2695 5.34375 10.0273 4.95312C9.79297 4.55469 9.46484 4.24219 9.04297 4.01562C8.62891 3.78125 8.16797 3.66406 7.66016 3.66406H3.81641V8.89062H7.67188ZM27.3125 10.7656C27.3125 11.0312 27.293 11.3516 27.2539 11.7266H17.8438C17.9375 12.3672 18.1406 12.9219 18.4531 13.3906C18.7734 13.8594 19.168 14.2188 19.6367 14.4688C20.1133 14.7109 20.6289 14.832 21.1836 14.832C21.8867 14.832 22.4609 14.6953 22.9062 14.4219C23.3594 14.1406 23.6914 13.7383 23.9023 13.2148H26.9961C26.7852 13.957 26.4141 14.6445 25.8828 15.2773C25.3516 15.9102 24.6836 16.418 23.8789 16.8008C23.082 17.1758 22.2031 17.3633 21.2422 17.3633C20.0625 17.3633 18.9961 17.0781 18.043 16.5078C17.0898 15.9375 16.3438 15.1641 15.8047 14.1875C15.2656 13.2109 14.9961 12.1406 14.9961 10.9766C14.9961 9.8125 15.2656 8.74219 15.8047 7.76562C16.3438 6.78906 17.0898 6.01562 18.043 5.44531C18.9961 4.875 20.0625 4.58984 21.2422 4.58984C22.4219 4.58984 23.4727 4.87109 24.3945 5.43359C25.3164 5.99609 26.0312 6.75 26.5391 7.69531C27.0547 8.63281 27.3125 9.65625 27.3125 10.7656ZM24.418 9.53516C24.3789 9.08984 24.2109 8.67969 23.9141 8.30469C23.6172 7.92188 23.2305 7.62109 22.7539 7.40234C22.2852 7.17578 21.7773 7.0625 21.2305 7.0625C20.4727 7.0625 19.793 7.27344 19.1914 7.69531C18.5977 8.10938 18.1875 8.72266 17.9609 9.53516H24.418ZM32.3281 4.95312V6.82812C32.6797 6.15625 33.2227 5.61719 33.957 5.21094C34.6992 4.79688 35.5273 4.58984 36.4414 4.58984C38.043 4.58984 39.25 5.09766 40.0625 6.11328C40.875 7.12891 41.2812 8.59375 41.2812 10.5078V17H38.4453V10.5664C38.4453 9.41016 38.2031 8.5625 37.7188 8.02344C37.2344 7.47656 36.5469 7.20312 35.6562 7.20312C35.0859 7.20312 34.5586 7.34766 34.0742 7.63672C33.5898 7.91797 33.1992 8.33594 32.9023 8.89062C32.6133 9.4375 32.4688 10.0898 32.4688 10.8477V17H29.6328V4.95312H32.3281ZM49.2148 17C48.0664 17 47.1133 16.6836 46.3555 16.0508C45.5977 15.4102 45.2188 14.1992 45.2188 12.418V7.39062H42.7227V4.95312H45.2188V1.42578L48.0547 1.40234V4.95312H51.6641V7.39062H48.0547V12.5469C48.0547 13.9453 48.6367 14.6445 49.8008 14.6445H51.6641V17H49.2148Z" fill="#012345"/>
<path d="M58.2734 4.95312H61.3203L63.6758 12.5938L63.8867 13.3086H63.9219L64.1445 12.5938L66.4297 4.95312H68.5273L70.7305 12.5117L70.9766 13.3086H71.0117L71.293 12.4648L73.6484 4.95312H76.6367L72.5703 17H69.9453L67.4375 9.19531H67.4258L64.8828 17H62.3281L58.2734 4.95312ZM81.2422 0.5V5.41016L81.1719 6.75781C81.5547 6.08594 82.0977 5.55859 82.8008 5.17578C83.5039 4.78516 84.3086 4.58984 85.2148 4.58984C86.8164 4.58984 88.0234 5.09766 88.8359 6.11328C89.6484 7.12891 90.0547 8.59375 90.0547 10.5078V17H87.2188V10.5664C87.2188 9.41016 86.9766 8.5625 86.4922 8.02344C86.0078 7.47656 85.3203 7.20312 84.4297 7.20312C83.875 7.20312 83.3516 7.35938 82.8594 7.67188C82.375 7.97656 81.9844 8.40625 81.6875 8.96094C81.3906 9.51562 81.2422 10.1445 81.2422 10.8477V17H78.4062V0.5H81.2422ZM98.1055 17.3633C97.043 17.3633 96.0781 17.0781 95.2109 16.5078C94.3438 15.9375 93.6641 15.1641 93.1719 14.1875C92.6797 13.2109 92.4336 12.1406 92.4336 10.9766C92.4336 9.82031 92.6797 8.75391 93.1719 7.77734C93.6719 6.80078 94.3516 6.02734 95.2109 5.45703C96.0781 4.87891 97.0391 4.58984 98.0938 4.58984C99.0781 4.58984 99.9492 4.80469 100.707 5.23438C101.473 5.65625 102.051 6.24219 102.441 6.99219V4.95312H105.137V17H102.441V14.9727C102.051 15.7227 101.473 16.3086 100.707 16.7305C99.9492 17.1523 99.082 17.3633 98.1055 17.3633ZM98.7852 14.7383C99.4336 14.7383 100.027 14.5742 100.566 14.2461C101.113 13.9102 101.543 13.457 101.855 12.8867C102.168 12.3086 102.324 11.6719 102.324 10.9766C102.324 10.2891 102.164 9.66016 101.844 9.08984C101.531 8.51172 101.105 8.05469 100.566 7.71875C100.027 7.38281 99.4336 7.21484 98.7852 7.21484C98.1367 7.21484 97.543 7.375 97.0039 7.69531C96.4648 8.00781 96.0352 8.44922 95.7148 9.01953C95.4023 9.58984 95.2461 10.2422 95.2461 10.9766C95.2461 11.7344 95.4062 12.3984 95.7266 12.9688C96.0469 13.5391 96.4766 13.9766 97.0156 14.2812C97.5547 14.5859 98.1445 14.7383 98.7852 14.7383ZM113.434 17C112.285 17 111.332 16.6836 110.574 16.0508C109.816 15.4102 109.438 14.1992 109.438 12.418V7.39062H106.941V4.95312H109.438V1.42578L112.273 1.40234V4.95312H115.883V7.39062H112.273V12.5469C112.273 13.9453 112.855 14.6445 114.02 14.6445H115.883V17H113.434ZM129.312 10.7656C129.312 11.0312 129.293 11.3516 129.254 11.7266H119.844C119.938 12.3672 120.141 12.9219 120.453 13.3906C120.773 13.8594 121.168 14.2188 121.637 14.4688C122.113 14.7109 122.629 14.832 123.184 14.832C123.887 14.832 124.461 14.6953 124.906 14.4219C125.359 14.1406 125.691 13.7383 125.902 13.2148H128.996C128.785 13.957 128.414 14.6445 127.883 15.2773C127.352 15.9102 126.684 16.418 125.879 16.8008C125.082 17.1758 124.203 17.3633 123.242 17.3633C122.062 17.3633 120.996 17.0781 120.043 16.5078C119.09 15.9375 118.344 15.1641 117.805 14.1875C117.266 13.2109 116.996 12.1406 116.996 10.9766C116.996 9.8125 117.266 8.74219 117.805 7.76562C118.344 6.78906 119.09 6.01562 120.043 5.44531C120.996 4.875 122.062 4.58984 123.242 4.58984C124.422 4.58984 125.473 4.87109 126.395 5.43359C127.316 5.99609 128.031 6.75 128.539 7.69531C129.055 8.63281 129.312 9.65625 129.312 10.7656ZM126.418 9.53516C126.379 9.08984 126.211 8.67969 125.914 8.30469C125.617 7.92188 125.23 7.62109 124.754 7.40234C124.285 7.17578 123.777 7.0625 123.23 7.0625C122.473 7.0625 121.793 7.27344 121.191 7.69531C120.598 8.10938 120.188 8.72266 119.961 9.53516H126.418ZM129.664 4.95312H132.676L135.477 12.2305L135.793 13.4961L136.098 12.2422L138.898 4.95312H141.934L137.105 17H134.469L129.664 4.95312ZM154.742 10.7656C154.742 11.0312 154.723 11.3516 154.684 11.7266H145.273C145.367 12.3672 145.57 12.9219 145.883 13.3906C146.203 13.8594 146.598 14.2188 147.066 14.4688C147.543 14.7109 148.059 14.832 148.613 14.832C149.316 14.832 149.891 14.6953 150.336 14.4219C150.789 14.1406 151.121 13.7383 151.332 13.2148H154.426C154.215 13.957 153.844 14.6445 153.312 15.2773C152.781 15.9102 152.113 16.418 151.309 16.8008C150.512 17.1758 149.633 17.3633 148.672 17.3633C147.492 17.3633 146.426 17.0781 145.473 16.5078C144.52 15.9375 143.773 15.1641 143.234 14.1875C142.695 13.2109 142.426 12.1406 142.426 10.9766C142.426 9.8125 142.695 8.74219 143.234 7.76562C143.773 6.78906 144.52 6.01562 145.473 5.44531C146.426 4.875 147.492 4.58984 148.672 4.58984C149.852 4.58984 150.902 4.87109 151.824 5.43359C152.746 5.99609 153.461 6.75 153.969 7.69531C154.484 8.63281 154.742 9.65625 154.742 10.7656ZM151.848 9.53516C151.809 9.08984 151.641 8.67969 151.344 8.30469C151.047 7.92188 150.66 7.62109 150.184 7.40234C149.715 7.17578 149.207 7.0625 148.66 7.0625C147.902 7.0625 147.223 7.27344 146.621 7.69531C146.027 8.10938 145.617 8.72266 145.391 9.53516H151.848ZM159.781 4.95312V7.13281C160.07 6.45312 160.488 5.92188 161.035 5.53906C161.59 5.14844 162.25 4.95312 163.016 4.95312H164.305V7.39062H163.168C162.52 7.39062 161.949 7.54688 161.457 7.85938C160.965 8.17188 160.582 8.62891 160.309 9.23047C160.035 9.83203 159.898 10.5547 159.898 11.3984V17H157.062V4.95312H159.781Z" fill="#4959FF"/>
</svg>
